<!-- Generated by IcoMoon.io -->
<svg version="1.1" xmlns="http://www.w3.org/2000/svg" width="32" height="32" viewBox="0 0 32 32">
<title>adaptive_design_responsive_responsive-design_icon</title>
<path d="M1.5 20c-0.276 0-0.5-0.224-0.5-0.5v-16c0-0.827 0.673-1.5 1.5-1.5h27c0.827 0 1.5 0.673 1.5 1.5v1.5c0 0.276-0.224 0.5-0.5 0.5s-0.5-0.224-0.5-0.5v-1.5c0-0.275-0.225-0.5-0.5-0.5h-27c-0.275 0-0.5 0.225-0.5 0.5v16c0 0.276-0.224 0.5-0.5 0.5z"></path>
<path d="M16 31h-5.5c-0.276 0-0.5-0.224-0.5-0.5s0.224-0.5 0.5-0.5h1c0.827 0 1.5-0.673 1.5-1.5v-2.5c0-0.276 0.224-0.5 0.5-0.5s0.5 0.224 0.5 0.5v2.5c0 0.563-0.187 1.082-0.501 1.5h2.501c0.276 0 0.5 0.224 0.5 0.5s-0.224 0.5-0.5 0.5z"></path>
<path d="M15.5 26h-13c-0.827 0-1.5-0.673-1.5-1.5v-3c0-0.276 0.224-0.5 0.5-0.5h14c0.276 0 0.5 0.224 0.5 0.5s-0.224 0.5-0.5 0.5h-13.5v2.5c0 0.275 0.225 0.5 0.5 0.5h13c0.276 0 0.5 0.224 0.5 0.5s-0.224 0.5-0.5 0.5z"></path>
<path d="M21.5 9h5c0.276 0 0.5-0.224 0.5-0.5s-0.224-0.5-0.5-0.5h-5c-0.276 0-0.5 0.224-0.5 0.5s0.224 0.5 0.5 0.5z"></path>
<path d="M23.5 29h1c0.276 0 0.5-0.224 0.5-0.5s-0.224-0.5-0.5-0.5h-1c-0.276 0-0.5 0.224-0.5 0.5s0.224 0.5 0.5 0.5z"></path>
<path d="M28.5 31h-9c-1.379 0-2.5-1.121-2.5-2.5v-20c0-1.379 1.121-2.5 2.5-2.5h9c1.379 0 2.5 1.121 2.5 2.5v20c0 1.379-1.121 2.5-2.5 2.5zM19.5 7c-0.827 0-1.5 0.673-1.5 1.5v20c0 0.827 0.673 1.5 1.5 1.5h9c0.827 0 1.5-0.673 1.5-1.5v-20c0-0.827-0.673-1.5-1.5-1.5h-9z"></path>
</svg>
