<!-- Generated by IcoMoon.io -->
<svg version="1.1" xmlns="http://www.w3.org/2000/svg" width="32" height="32" viewBox="0 0 32 32">
<title>code_icon1</title>
<path d="M27.453 16l-4.4-4.4c-0.282-0.246-0.459-0.605-0.459-1.006 0-0.736 0.597-1.333 1.333-1.333 0.408 0 0.772 0.183 1.017 0.471l0.002 0.002 5.333 5.333c0.236 0.24 0.381 0.57 0.381 0.933s-0.145 0.693-0.381 0.934l-5.333 5.333c-0.233 0.203-0.539 0.327-0.875 0.327-0.736 0-1.333-0.597-1.333-1.333 0-0.329 0.119-0.63 0.316-0.862l-0.002 0.002 4.4-4.4zM4.533 16l4.4 4.4c0.196 0.231 0.315 0.532 0.315 0.86 0 0.736-0.597 1.333-1.333 1.333-0.335 0-0.642-0.124-0.876-0.328l0.002 0.001-5.333-5.333c-0.236-0.24-0.381-0.57-0.381-0.933s0.145-0.693 0.381-0.934l5.333-5.333c0.233-0.203 0.539-0.327 0.875-0.327 0.736 0 1.333 0.597 1.333 1.333 0 0.329-0.119 0.63-0.316 0.862l0.002-0.002-4.4 4.4zM14.613 26.987c-0.166 0.561-0.676 0.963-1.281 0.963-0.736 0-1.333-0.597-1.333-1.333 0-0.096 0.010-0.189 0.029-0.279l-0.002 0.009 5.333-21.333c0.13-0.611 0.665-1.063 1.306-1.063 0.736 0 1.333 0.597 1.333 1.333 0 0.132-0.019 0.259-0.055 0.38l0.002-0.009-5.333 21.333z"></path>
</svg>
