<!-- Generated by IcoMoon.io -->
<svg version="1.1" xmlns="http://www.w3.org/2000/svg" width="32" height="32" viewBox="0 0 32 32">
<title>facebook_hexagon_media_polygon_social_icon</title>
<path fill="#3b5999" d="M27.606 24.506l-10.044 5.8c-0.969 0.556-2.156 0.556-3.125 0l-10.044-5.8c-0.969-0.556-1.563-1.587-1.563-2.706v-11.6c0-1.119 0.594-2.15 1.563-2.706l10.044-5.8c0.969-0.556 2.156-0.556 3.125 0l10.044 5.8c0.969 0.556 1.563 1.587 1.563 2.706v11.6c0 1.113-0.594 2.15-1.563 2.706z"></path>
<path fill="#fff" d="M17.119 21.575c0 1.506-0.006 3.006 0.006 4.512 0 0.163-0.038 0.206-0.206 0.206-1.281-0.006-2.563-0.006-3.844 0-0.175 0-0.219-0.050-0.219-0.219 0.006-2.988 0.006-5.981 0.006-8.969 0-0.163-0.031-0.225-0.206-0.219-0.569 0.012-1.131 0-1.7 0.006-0.131 0-0.169-0.038-0.169-0.169 0.006-0.944 0.006-1.894 0-2.838 0-0.144 0.050-0.175 0.181-0.169 0.569 0.006 1.131-0.006 1.7 0.006 0.162 0.006 0.194-0.050 0.194-0.2-0.006-0.831-0.006-1.669 0-2.5 0.006-0.719 0.15-1.4 0.581-2.006 0.45-0.644 1.081-1.031 1.813-1.263 0.55-0.175 1.112-0.25 1.688-0.256 1.081-0.013 2.163-0.006 3.244-0.013 0.15 0 0.188 0.050 0.188 0.194-0.006 0.969-0.006 1.938 0 2.912 0 0.162-0.050 0.194-0.2 0.194-0.681-0.006-1.369-0.006-2.050-0.006-0.6 0-0.994 0.394-0.994 0.988 0 0.588 0.006 1.181-0.006 1.775 0 0.144 0.044 0.181 0.181 0.181 0.956-0.006 1.913 0 2.875-0.006 0.144 0 0.2 0.031 0.181 0.188-0.106 0.969-0.194 1.938-0.369 2.9-0.025 0.119-0.1 0.087-0.163 0.087-0.569 0-1.131 0-1.7 0-0.275 0-0.55 0.006-0.819-0.006-0.15-0.006-0.2 0.038-0.194 0.194 0 1.494 0 2.994 0 4.494z"></path>
</svg>
