<!-- Generated by IcoMoon.io -->
<svg version="1.1" xmlns="http://www.w3.org/2000/svg" width="32" height="32" viewBox="0 0 32 32">
<title>github_logo_social-network_social_icon</title>
<path d="M18.508 22.136c3.118-0.368 6.434-1.502 6.434-6.887 0-1.531-0.539-2.778-1.417-3.742 0.142-0.368 0.595-1.757-0.171-3.684 0 0-1.134-0.369-3.797 1.417-1.134-0.311-2.381-0.51-3.543-0.51-1.191 0-2.438 0.199-3.544 0.51-2.693-1.785-3.826-1.417-3.826-1.417-0.765 1.927-0.311 3.316-0.17 3.684-0.879 0.964-1.417 2.211-1.417 3.742 0 5.385 3.316 6.519 6.434 6.887-0.396 0.341-0.765 0.992-0.907 1.899-0.794 0.34-2.863 0.992-4.11-1.162 0 0-0.737-1.332-2.126-1.417 0 0-1.389-0.028-0.113 0.849 0 0 0.935 0.426 1.559 2.041 0 0 0.85 2.693 4.761 1.843v2.409c0 0.369-0.283 0.794-0.992 0.681-5.556-1.843-9.552-7.114-9.552-13.293 0-7.738 6.263-14.001 14.002-14.001 7.709 0 14.001 6.264 13.973 14.001 0 6.178-3.997 11.422-9.552 13.293-0.709 0.142-0.992-0.283-0.992-0.681v-3.882c0-1.305-0.426-2.154-0.935-2.58v0zM32 16.014c0-8.844-7.171-16.014-15.986-16.014-8.844 0-16.014 7.171-16.014 16.014 0 8.815 7.171 15.986 16.014 15.986 8.815 0 15.986-7.171 15.986-15.986v0z"></path>
</svg>
