<!-- Generated by IcoMoon.io -->
<svg version="1.1" xmlns="http://www.w3.org/2000/svg" width="32" height="32" viewBox="0 0 32 32">
<title>hexagon_media_polygon_social_t_icon</title>
<path fill="#37475e" d="M27.606 24.506l-10.044 5.8c-0.969 0.556-2.156 0.556-3.125 0l-10.044-5.8c-0.969-0.556-1.563-1.587-1.563-2.706v-11.6c0-1.119 0.594-2.15 1.563-2.706l10.044-5.8c0.969-0.556 2.156-0.556 3.125 0l10.044 5.8c0.969 0.556 1.563 1.587 1.563 2.706v11.6c0 1.113-0.594 2.15-1.563 2.706z"></path>
<path fill="#fff" d="M20.625 20.956c0.044 0.069 0.031 0.131 0.031 0.188 0 0.775 0 1.55 0.006 2.325 0 0.113-0.019 0.181-0.144 0.238-0.494 0.238-0.994 0.45-1.525 0.594-0.356 0.1-0.719 0.156-1.081 0.206-0.3 0.038-0.6 0.038-0.9 0.031-0.4-0.012-0.8-0.069-1.194-0.169-0.425-0.106-0.831-0.256-1.194-0.494-0.656-0.425-1.175-0.975-1.438-1.744-0.119-0.356-0.131-0.712-0.144-1.069-0.050-1.906-0.025-3.813-0.037-5.725 0-0.219-0.012-0.438 0-0.656 0.006-0.131-0.031-0.175-0.169-0.175-0.431 0.006-0.863-0.006-1.294 0.006-0.15 0.006-0.2-0.031-0.2-0.194 0.012-0.688 0.006-1.381 0.006-2.069 0-0.144 0.012-0.219 0.188-0.281 0.344-0.125 0.662-0.319 0.95-0.544 0.637-0.494 1.119-1.106 1.425-1.85 0.25-0.613 0.394-1.25 0.475-1.906 0.012-0.094 0.031-0.156 0.144-0.162 0.331-0.019 0.656-0.075 0.988-0.031 0.313 0.037 0.625 0.031 0.937 0.031 0.144 0 0.131 0.081 0.131 0.175 0.006 1.050 0.006 2.1 0.012 3.15 0 0.269 0.006 0.537-0.006 0.806-0.006 0.131 0.031 0.169 0.163 0.169 1.081-0.006 2.163 0 3.25-0.006 0.163 0 0.2 0.056 0.2 0.2-0.006 0.775-0.006 1.55 0 2.325 0 0.144-0.038 0.194-0.194 0.194-1.075-0.006-2.156 0-3.231-0.006-0.137 0-0.194 0.019-0.194 0.181 0.012 1.625 0.012 3.25 0.012 4.881 0 0.344 0.019 0.688 0.081 1.019 0.094 0.525 0.45 0.844 0.938 1.012 0.669 0.238 1.325 0.137 1.975-0.081 0.369-0.131 0.706-0.337 1.031-0.569z"></path>
</svg>
