<!-- Generated by IcoMoon.io -->
<svg version="1.1" xmlns="http://www.w3.org/2000/svg" width="32" height="32" viewBox="0 0 32 32">
<title>hexagon_media_polygon_social_twitter_icon</title>
<path fill="#55acee" d="M27.606 24.506l-10.044 5.8c-0.969 0.556-2.156 0.556-3.125 0l-10.044-5.8c-0.969-0.556-1.563-1.587-1.563-2.706v-11.6c0-1.119 0.594-2.15 1.563-2.706l10.044-5.8c0.969-0.556 2.156-0.556 3.125 0l10.044 5.8c0.969 0.556 1.563 1.587 1.563 2.706v11.6c0 1.113-0.594 2.15-1.563 2.706z"></path>
<path fill="#fff" d="M8.331 20.844c1.719 0.163 3.238-0.269 4.625-1.306-0.363-0.025-0.675-0.075-0.975-0.188-0.794-0.288-1.387-0.8-1.769-1.55-0.056-0.106-0.1-0.219-0.15-0.331-0.056-0.113 0-0.131 0.1-0.113 0.394 0.063 0.781 0.038 1.169-0.044 0.006 0 0.012-0.012 0.025-0.019 0.006-0.044-0.025-0.050-0.056-0.056-0.875-0.219-1.531-0.731-1.981-1.506-0.256-0.438-0.387-0.912-0.4-1.419 0-0.131 0.031-0.144 0.144-0.094 0.387 0.188 0.794 0.3 1.262 0.319-0.225-0.181-0.431-0.344-0.6-0.544-0.619-0.731-0.875-1.569-0.75-2.519 0.044-0.356 0.156-0.681 0.313-1.006 0.056-0.119 0.1-0.131 0.188-0.025 0.506 0.613 1.094 1.137 1.744 1.594 0.488 0.344 1.006 0.625 1.55 0.863 0.706 0.306 1.438 0.512 2.194 0.637 0.256 0.037 0.512 0.050 0.762 0.081 0.119 0.012 0.137-0.031 0.113-0.137-0.125-0.656-0.044-1.3 0.244-1.9 0.45-0.938 1.188-1.537 2.212-1.756 1.012-0.213 1.913 0.037 2.712 0.681 0.256 0.387 0.581 0.162 0.875 0.081 0.469-0.131 0.906-0.331 1.337-0.563-0.219 0.706-0.656 1.244-1.262 1.669 0.587-0.037 1.131-0.219 1.712-0.45-0.156 0.244-0.313 0.438-0.469 0.625-0.294 0.35-0.631 0.65-0.994 0.925-0.075 0.056-0.094 0.113-0.094 0.2 0.019 0.637-0.031 1.269-0.15 1.894-0.119 0.656-0.313 1.287-0.569 1.9-0.288 0.681-0.65 1.331-1.094 1.925-0.55 0.744-1.2 1.394-1.956 1.931-1.019 0.725-2.15 1.2-3.375 1.431-0.769 0.15-1.544 0.194-2.331 0.156-0.606-0.031-1.2-0.125-1.787-0.275-0.731-0.188-1.431-0.469-2.088-0.844-0.137-0.075-0.294-0.131-0.431-0.269z"></path>
</svg>
