<!-- Generated by IcoMoon.io -->
<svg version="1.1" xmlns="http://www.w3.org/2000/svg" width="32" height="32" viewBox="0 0 32 32">
<title>launch_open_share_icon</title>
<path fill="#134563" d="M14.85 18.3l-1.15-1.15 12.9-12.85 1.1 1.1-12.85 12.9z"></path>
<path fill="#134563" d="M28 12.55h-1.7v-6.85h-6.85v-1.7h8.55v8.55z"></path>
<path fill="#134563" d="M23.7 28h-17.15c-1.4 0-2.55-1.15-2.55-2.55v-17.15c0-1.4 1.15-2.55 2.55-2.55h9.45v1.7h-9.45c-0.45 0-0.85 0.4-0.85 0.85v17.15c0 0.45 0.4 0.85 0.85 0.85h17.15c0.45 0 0.85-0.4 0.85-0.85v-9.45h1.7v9.45c0.050 1.4-1.1 2.55-2.55 2.55z"></path>
</svg>
