<svg width="87" height="68" viewBox="0 0 87 68" fill="none" xmlns="http://www.w3.org/2000/svg">
<path d="M53.2794 39.3544V45.6094H52.2534V42.8734H49.3104V45.6094H48.2844V39.3544H49.3104V42.0364H52.2534V39.3544H53.2794ZM54.2881 43.1074C54.2881 42.6094 54.3901 42.1684 54.5941 41.7844C54.8041 41.4004 55.0861 41.1034 55.4401 40.8934C55.8001 40.6774 56.1961 40.5694 56.6281 40.5694C57.0181 40.5694 57.3571 40.6474 57.6451 40.8034C57.9391 40.9534 58.1731 41.1424 58.3471 41.3704V40.6504H59.3821V45.6094H58.3471V44.8714C58.1731 45.1054 57.9361 45.3004 57.6361 45.4564C57.3361 45.6124 56.9941 45.6904 56.6101 45.6904C56.1841 45.6904 55.7941 45.5824 55.4401 45.3664C55.0861 45.1444 54.8041 44.8384 54.5941 44.4484C54.3901 44.0524 54.2881 43.6054 54.2881 43.1074ZM58.3471 43.1254C58.3471 42.7834 58.2751 42.4864 58.1311 42.2344C57.9931 41.9824 57.8101 41.7904 57.5821 41.6584C57.3541 41.5264 57.1081 41.4604 56.8441 41.4604C56.5801 41.4604 56.3341 41.5264 56.1061 41.6584C55.8781 41.7844 55.6921 41.9734 55.5481 42.2254C55.4101 42.4714 55.3411 42.7654 55.3411 43.1074C55.3411 43.4494 55.4101 43.7494 55.5481 44.0074C55.6921 44.2654 55.8781 44.4634 56.1061 44.6014C56.3401 44.7334 56.5861 44.7994 56.8441 44.7994C57.1081 44.7994 57.3541 44.7334 57.5821 44.6014C57.8101 44.4694 57.9931 44.2774 58.1311 44.0254C58.2751 43.7674 58.3471 43.4674 58.3471 43.1254ZM63.2317 40.5694C63.6217 40.5694 63.9697 40.6504 64.2757 40.8124C64.5877 40.9744 64.8307 41.2144 65.0047 41.5324C65.1787 41.8504 65.2657 42.2344 65.2657 42.6844V45.6094H64.2487V42.8374C64.2487 42.3934 64.1377 42.0544 63.9157 41.8204C63.6937 41.5804 63.3907 41.4604 63.0067 41.4604C62.6227 41.4604 62.3167 41.5804 62.0887 41.8204C61.8667 42.0544 61.7557 42.3934 61.7557 42.8374V45.6094H60.7297V40.6504H61.7557V41.2174C61.9237 41.0134 62.1367 40.8544 62.3947 40.7404C62.6587 40.6264 62.9377 40.5694 63.2317 40.5694ZM66.2324 43.1074C66.2324 42.6094 66.3344 42.1684 66.5384 41.7844C66.7484 41.4004 67.0304 41.1034 67.3844 40.8934C67.7444 40.6774 68.1434 40.5694 68.5814 40.5694C68.9054 40.5694 69.2234 40.6414 69.5354 40.7854C69.8534 40.9234 70.1054 41.1094 70.2914 41.3434V38.9494H71.3264V45.6094H70.2914V44.8624C70.1234 45.1024 69.8894 45.3004 69.5894 45.4564C69.2954 45.6124 68.9564 45.6904 68.5724 45.6904C68.1404 45.6904 67.7444 45.5824 67.3844 45.3664C67.0304 45.1444 66.7484 44.8384 66.5384 44.4484C66.3344 44.0524 66.2324 43.6054 66.2324 43.1074ZM70.2914 43.1254C70.2914 42.7834 70.2194 42.4864 70.0754 42.2344C69.9374 41.9824 69.7544 41.7904 69.5264 41.6584C69.2984 41.5264 69.0524 41.4604 68.7884 41.4604C68.5244 41.4604 68.2784 41.5264 68.0504 41.6584C67.8224 41.7844 67.6364 41.9734 67.4924 42.2254C67.3544 42.4714 67.2854 42.7654 67.2854 43.1074C67.2854 43.4494 67.3544 43.7494 67.4924 44.0074C67.6364 44.2654 67.8224 44.4634 68.0504 44.6014C68.2844 44.7334 68.5304 44.7994 68.7884 44.7994C69.0524 44.7994 69.2984 44.7334 69.5264 44.6014C69.7544 44.4694 69.9374 44.2774 70.0754 44.0254C70.2194 43.7674 70.2914 43.4674 70.2914 43.1254ZM77.138 40.6504L74.096 47.9404H73.034L74.042 45.5284L72.089 40.6504H73.232L74.627 44.4304L76.076 40.6504H77.138Z" fill="#0D2257"/>
<path d="M24.1094 1L1 19.3281L11.3594 47.2188H36.8594L47.2188 19.3281L24.1094 1Z" stroke="#00164E" stroke-width="1.5"/>
<path d="M14.3454 28.6724C13.9254 28.6724 13.5474 28.6004 13.2114 28.4564C12.8754 28.3064 12.6114 28.0964 12.4194 27.8264C12.2274 27.5564 12.1314 27.2414 12.1314 26.8814H13.2294C13.2534 27.1514 13.3584 27.3734 13.5444 27.5474C13.7364 27.7214 14.0034 27.8084 14.3454 27.8084C14.6994 27.8084 14.9754 27.7244 15.1734 27.5564C15.3714 27.3824 15.4704 27.1604 15.4704 26.8904C15.4704 26.6804 15.4074 26.5094 15.2814 26.3774C15.1614 26.2454 15.0084 26.1434 14.8224 26.0714C14.6424 25.9994 14.3904 25.9214 14.0664 25.8374C13.6584 25.7294 13.3254 25.6214 13.0674 25.5134C12.8154 25.3994 12.5994 25.2254 12.4194 24.9914C12.2394 24.7574 12.1494 24.4454 12.1494 24.0554C12.1494 23.6954 12.2394 23.3804 12.4194 23.1104C12.5994 22.8404 12.8514 22.6334 13.1754 22.4894C13.4994 22.3454 13.8744 22.2734 14.3004 22.2734C14.9064 22.2734 15.4014 22.4264 15.7854 22.7324C16.1754 23.0324 16.3914 23.4464 16.4334 23.9744H15.2994C15.2814 23.7464 15.1734 23.5514 14.9754 23.3894C14.7774 23.2274 14.5164 23.1464 14.1924 23.1464C13.8984 23.1464 13.6584 23.2214 13.4724 23.3714C13.2864 23.5214 13.1934 23.7374 13.1934 24.0194C13.1934 24.2114 13.2504 24.3704 13.3644 24.4964C13.4844 24.6164 13.6344 24.7124 13.8144 24.7844C13.9944 24.8564 14.2404 24.9344 14.5524 25.0184C14.9664 25.1324 15.3024 25.2464 15.5604 25.3604C15.8244 25.4744 16.0464 25.6514 16.2264 25.8914C16.4124 26.1254 16.5054 26.4404 16.5054 26.8364C16.5054 27.1544 16.4184 27.4544 16.2444 27.7364C16.0764 28.0184 15.8274 28.2464 15.4974 28.4204C15.1734 28.5884 14.7894 28.6724 14.3454 28.6724ZM18.742 24.3794C18.916 24.1514 19.153 23.9594 19.453 23.8034C19.753 23.6474 20.092 23.5694 20.47 23.5694C20.902 23.5694 21.295 23.6774 21.649 23.8934C22.009 24.1034 22.291 24.4004 22.495 24.7844C22.699 25.1684 22.801 25.6094 22.801 26.1074C22.801 26.6054 22.699 27.0524 22.495 27.4484C22.291 27.8384 22.009 28.1444 21.649 28.3664C21.295 28.5824 20.902 28.6904 20.47 28.6904C20.092 28.6904 19.756 28.6154 19.462 28.4654C19.168 28.3094 18.928 28.1174 18.742 27.8894V30.9674H17.716V23.6504H18.742V24.3794ZM21.757 26.1074C21.757 25.7654 21.685 25.4714 21.541 25.2254C21.403 24.9734 21.217 24.7844 20.983 24.6584C20.755 24.5264 20.509 24.4604 20.245 24.4604C19.987 24.4604 19.741 24.5264 19.507 24.6584C19.279 24.7904 19.093 24.9824 18.949 25.2344C18.811 25.4864 18.742 25.7834 18.742 26.1254C18.742 26.4674 18.811 26.7674 18.949 27.0254C19.093 27.2774 19.279 27.4694 19.507 27.6014C19.741 27.7334 19.987 27.7994 20.245 27.7994C20.509 27.7994 20.755 27.7334 20.983 27.6014C21.217 27.4634 21.403 27.2654 21.541 27.0074C21.685 26.7494 21.757 26.4494 21.757 26.1074ZM26.3806 23.5694C26.7586 23.5694 27.0946 23.6504 27.3886 23.8124C27.6886 23.9744 27.9226 24.2144 28.0906 24.5324C28.2646 24.8504 28.3516 25.2344 28.3516 25.6844V28.6094H27.3346V25.8374C27.3346 25.3934 27.2236 25.0544 27.0016 24.8204C26.7796 24.5804 26.4766 24.4604 26.0926 24.4604C25.7086 24.4604 25.4026 24.5804 25.1746 24.8204C24.9526 25.0544 24.8416 25.3934 24.8416 25.8374V28.6094H23.8156V21.9494H24.8416V24.2264C25.0156 24.0164 25.2346 23.8544 25.4986 23.7404C25.7686 23.6264 26.0626 23.5694 26.3806 23.5694ZM34.2054 26.0084C34.2054 26.1944 34.1934 26.3624 34.1694 26.5124H30.3804C30.4104 26.9084 30.5574 27.2264 30.8214 27.4664C31.0854 27.7064 31.4094 27.8264 31.7934 27.8264C32.3454 27.8264 32.7354 27.5954 32.9634 27.1334H34.0704C33.9204 27.5894 33.6474 27.9644 33.2514 28.2584C32.8614 28.5464 32.3754 28.6904 31.7934 28.6904C31.3194 28.6904 30.8934 28.5854 30.5154 28.3754C30.1434 28.1594 29.8494 27.8594 29.6334 27.4754C29.4234 27.0854 29.3184 26.6354 29.3184 26.1254C29.3184 25.6154 29.4204 25.1684 29.6244 24.7844C29.8344 24.3944 30.1254 24.0944 30.4974 23.8844C30.8754 23.6744 31.3074 23.5694 31.7934 23.5694C32.2614 23.5694 32.6784 23.6714 33.0444 23.8754C33.4104 24.0794 33.6954 24.3674 33.8994 24.7394C34.1034 25.1054 34.2054 25.5284 34.2054 26.0084ZM33.1344 25.6844C33.1284 25.3064 32.9934 25.0034 32.7294 24.7754C32.4654 24.5474 32.1384 24.4334 31.7484 24.4334C31.3944 24.4334 31.0914 24.5474 30.8394 24.7754C30.5874 24.9974 30.4374 25.3004 30.3894 25.6844H33.1344Z" fill="#0D2257"/>
<path d="M62.7188 66.8281L39.6094 48.5L49.9688 20.6094H75.4688L85.8281 48.5L62.7188 66.8281Z" stroke="#00164E" stroke-width="1.5"/>
</svg>
