<svg aria-hidden="true" style="position: absolute; width: 0; height: 0; overflow: hidden;" version="1.1" xmlns="http://www.w3.org/2000/svg" xmlns:xlink="http://www.w3.org/1999/xlink">
<defs>
<symbol id="icon-new-logo" viewBox="0 0 22 32">
<path fill="none" stroke="#adf0d1" style="stroke: var(--color1, #adf0d1)" stroke-linejoin="miter" stroke-linecap="butt" stroke-miterlimit="4" stroke-width="0.583" d="M4.695 0.884l4.897 4.284-4.284 4.897-4.897-4.284 4.284-4.897z"></path>
<path fill="none" stroke="#adf0d1" style="stroke: var(--color1, #adf0d1)" stroke-linejoin="miter" stroke-linecap="butt" stroke-miterlimit="4" stroke-width="0.583" d="M15.034 0.411l4.897 4.284-4.284 4.897-4.897-4.284 4.284-4.897z"></path>
<path fill="none" stroke="#adf0d1" style="stroke: var(--color1, #adf0d1)" stroke-linejoin="miter" stroke-linecap="butt" stroke-miterlimit="4" stroke-width="0.583" d="M9.973 7.688l7.208 6.304-6.304 7.208-7.208-6.304 6.304-7.208z"></path>
<path fill="#adf0d1" style="fill: var(--color1, #adf0d1)" d="M1.154 30.663c-0.161 0-0.306-0.028-0.436-0.083-0.128-0.055-0.229-0.134-0.304-0.238s-0.113-0.226-0.116-0.367h0.496c0.007 0.095 0.040 0.17 0.099 0.225 0.062 0.055 0.145 0.083 0.251 0.083 0.108 0 0.193-0.025 0.254-0.076 0.062-0.053 0.093-0.121 0.093-0.205 0-0.068-0.021-0.124-0.063-0.169s-0.095-0.078-0.159-0.102c-0.062-0.026-0.148-0.055-0.258-0.086-0.15-0.044-0.272-0.087-0.367-0.129-0.093-0.044-0.173-0.109-0.241-0.195-0.066-0.088-0.099-0.205-0.099-0.35 0-0.137 0.034-0.255 0.102-0.357s0.164-0.178 0.287-0.231c0.123-0.055 0.264-0.083 0.423-0.083 0.238 0 0.431 0.058 0.578 0.175 0.15 0.115 0.232 0.275 0.248 0.482h-0.509c-0.004-0.079-0.039-0.144-0.102-0.195-0.062-0.053-0.144-0.079-0.248-0.079-0.090 0-0.163 0.023-0.218 0.069-0.053 0.046-0.079 0.113-0.079 0.202 0 0.062 0.020 0.113 0.059 0.155 0.042 0.040 0.093 0.073 0.152 0.099 0.062 0.024 0.148 0.053 0.258 0.086 0.15 0.044 0.272 0.088 0.367 0.132s0.176 0.11 0.244 0.198c0.068 0.088 0.102 0.204 0.102 0.347 0 0.123-0.032 0.238-0.096 0.344s-0.157 0.191-0.281 0.254c-0.123 0.062-0.27 0.093-0.439 0.093zM2.866 29.074c0.059-0.084 0.141-0.153 0.244-0.208 0.106-0.057 0.226-0.086 0.36-0.086 0.156 0 0.297 0.039 0.423 0.116 0.128 0.077 0.228 0.187 0.301 0.33 0.075 0.141 0.112 0.305 0.112 0.492s-0.037 0.354-0.112 0.499c-0.073 0.143-0.173 0.254-0.301 0.334-0.126 0.079-0.267 0.119-0.423 0.119-0.134 0-0.253-0.028-0.357-0.083-0.101-0.055-0.184-0.124-0.248-0.208v1.133h-0.462v-2.702h0.462v0.264zM3.834 29.718c0-0.11-0.023-0.205-0.069-0.284-0.044-0.081-0.103-0.143-0.178-0.185-0.073-0.042-0.152-0.063-0.238-0.063-0.084 0-0.163 0.022-0.238 0.066-0.073 0.042-0.132 0.104-0.178 0.185-0.044 0.081-0.066 0.177-0.066 0.287s0.022 0.206 0.066 0.287c0.046 0.081 0.106 0.144 0.178 0.188 0.075 0.042 0.154 0.063 0.238 0.063 0.086 0 0.165-0.022 0.238-0.066 0.075-0.044 0.134-0.107 0.178-0.188 0.046-0.081 0.069-0.178 0.069-0.291zM5.706 28.783c0.139 0 0.262 0.031 0.37 0.093 0.108 0.059 0.192 0.149 0.251 0.268 0.062 0.117 0.093 0.258 0.093 0.423v1.074h-0.463v-1.011c0-0.145-0.036-0.257-0.109-0.334-0.073-0.079-0.172-0.119-0.297-0.119-0.128 0-0.229 0.040-0.304 0.119-0.073 0.077-0.109 0.188-0.109 0.334v1.011h-0.463v-2.445h0.463v0.842c0.059-0.079 0.139-0.141 0.238-0.185 0.099-0.046 0.209-0.069 0.33-0.069zM8.594 29.685c0 0.066-0.004 0.126-0.013 0.178h-1.338c0.011 0.132 0.057 0.236 0.139 0.311s0.182 0.112 0.301 0.112c0.172 0 0.294-0.074 0.367-0.221h0.499c-0.053 0.176-0.154 0.322-0.304 0.436-0.15 0.112-0.334 0.169-0.552 0.169-0.176 0-0.335-0.039-0.476-0.116-0.139-0.079-0.248-0.191-0.327-0.334-0.077-0.143-0.116-0.308-0.116-0.496 0-0.189 0.039-0.356 0.116-0.499s0.185-0.253 0.324-0.33c0.139-0.077 0.298-0.116 0.479-0.116 0.174 0 0.329 0.037 0.466 0.112 0.139 0.075 0.246 0.182 0.32 0.32 0.077 0.137 0.116 0.294 0.116 0.472zM8.115 29.553c-0.002-0.119-0.045-0.214-0.129-0.284-0.084-0.073-0.186-0.109-0.307-0.109-0.115 0-0.211 0.035-0.291 0.106-0.077 0.068-0.124 0.164-0.142 0.287h0.869zM11.030 30.772v0.439h-1.939v-0.439h1.939zM12.639 28.783c0.139 0 0.262 0.031 0.37 0.093 0.108 0.059 0.192 0.149 0.251 0.268 0.062 0.117 0.092 0.258 0.092 0.423v1.074h-0.463v-1.011c0-0.145-0.036-0.257-0.109-0.334-0.073-0.079-0.172-0.119-0.297-0.119-0.128 0-0.229 0.040-0.304 0.119-0.073 0.077-0.109 0.188-0.109 0.334v1.011h-0.463v-2.445h0.463v0.842c0.059-0.079 0.139-0.141 0.238-0.185 0.099-0.046 0.209-0.069 0.33-0.069zM13.706 29.718c0-0.185 0.036-0.349 0.109-0.492 0.075-0.143 0.175-0.253 0.301-0.33 0.128-0.077 0.27-0.116 0.426-0.116 0.137 0 0.255 0.028 0.357 0.083 0.104 0.055 0.186 0.124 0.248 0.208v-0.261h0.466v1.83h-0.466v-0.268c-0.059 0.086-0.142 0.157-0.248 0.215-0.104 0.055-0.224 0.083-0.36 0.083-0.154 0-0.295-0.040-0.423-0.119-0.126-0.079-0.226-0.191-0.301-0.334-0.073-0.145-0.109-0.312-0.109-0.499zM15.147 29.725c0-0.112-0.022-0.208-0.066-0.287-0.044-0.081-0.104-0.143-0.178-0.185-0.075-0.044-0.155-0.066-0.241-0.066s-0.165 0.021-0.238 0.063c-0.073 0.042-0.132 0.104-0.178 0.185-0.044 0.079-0.066 0.174-0.066 0.284s0.022 0.207 0.066 0.291c0.046 0.081 0.106 0.144 0.178 0.188 0.075 0.044 0.154 0.066 0.238 0.066 0.086 0 0.166-0.021 0.241-0.063 0.075-0.044 0.134-0.106 0.178-0.185 0.044-0.081 0.066-0.178 0.066-0.291zM17.111 28.783c0.218 0 0.394 0.069 0.529 0.208 0.134 0.137 0.202 0.328 0.202 0.575v1.074h-0.462v-1.011c0-0.145-0.036-0.257-0.109-0.334-0.073-0.079-0.172-0.119-0.297-0.119-0.128 0-0.229 0.040-0.304 0.119-0.073 0.077-0.109 0.188-0.109 0.334v1.011h-0.462v-1.83h0.462v0.228c0.062-0.079 0.14-0.141 0.235-0.185 0.097-0.046 0.203-0.069 0.317-0.069zM18.195 29.718c0-0.185 0.036-0.349 0.109-0.492 0.075-0.143 0.176-0.253 0.304-0.33s0.27-0.116 0.426-0.116c0.119 0 0.232 0.026 0.34 0.079 0.108 0.051 0.194 0.119 0.258 0.205v-0.869h0.469v2.445h-0.469v-0.271c-0.057 0.090-0.138 0.163-0.241 0.218s-0.224 0.083-0.36 0.083c-0.154 0-0.295-0.040-0.423-0.119s-0.229-0.191-0.304-0.334c-0.073-0.145-0.109-0.312-0.109-0.499zM19.636 29.725c0-0.112-0.022-0.208-0.066-0.287-0.044-0.081-0.104-0.143-0.178-0.185-0.075-0.044-0.155-0.066-0.241-0.066s-0.165 0.021-0.238 0.063c-0.073 0.042-0.132 0.104-0.178 0.185-0.044 0.079-0.066 0.174-0.066 0.284s0.022 0.207 0.066 0.291c0.046 0.081 0.106 0.144 0.178 0.188 0.075 0.044 0.154 0.066 0.238 0.066 0.086 0 0.166-0.021 0.241-0.063 0.075-0.044 0.134-0.106 0.178-0.185 0.044-0.081 0.066-0.178 0.066-0.291zM22.337 28.809l-1.133 2.696h-0.492l0.396-0.912-0.733-1.784h0.519l0.472 1.279 0.479-1.279h0.492z"></path>
</symbol>
</defs>
</svg>
