<!-- Generated by IcoMoon.io -->
<svg version="1.1" xmlns="http://www.w3.org/2000/svg" width="32" height="32" viewBox="0 0 32 32">
<title>hexagon_instagram_media_polygon_social_icon</title>
<path fill="#bc2a8d" d="M27.606 24.506l-10.044 5.8c-0.969 0.556-2.156 0.556-3.125 0l-10.044-5.8c-0.969-0.556-1.563-1.587-1.563-2.706v-11.6c0-1.119 0.594-2.15 1.563-2.706l10.044-5.8c0.969-0.556 2.156-0.556 3.125 0l10.044 5.8c0.969 0.556 1.563 1.587 1.563 2.706v11.6c0 1.113-0.594 2.15-1.563 2.706z"></path>
<path fill="#fff" d="M23.669 16c0 1.075 0 2.156 0 3.231 0 1.825-0.887 3.094-2.475 3.913-0.65 0.337-1.356 0.488-2.087 0.488-2.075 0-4.156 0.038-6.231-0.012-1.669-0.038-3.006-0.769-3.906-2.206-0.375-0.6-0.556-1.262-0.563-1.969 0-2.275-0.012-4.556 0-6.831 0.012-1.563 0.775-2.713 2.069-3.531 0.769-0.481 1.619-0.7 2.525-0.706 2.019 0 4.038-0.012 6.063 0 1.563 0.012 2.856 0.619 3.813 1.875 0.525 0.694 0.788 1.494 0.788 2.369 0.006 1.125 0.006 2.25 0.006 3.381zM22.531 16.012c0-1.131 0-2.269 0-3.4 0-0.613-0.181-1.175-0.544-1.662-0.706-0.95-1.681-1.419-2.844-1.431-2.050-0.025-4.1-0.006-6.156-0.006-0.637 0-1.244 0.15-1.794 0.469-1.063 0.613-1.656 1.512-1.65 2.769 0.006 2.206 0 4.419 0 6.631 0 0.619 0.181 1.188 0.55 1.681 0.706 0.95 1.681 1.413 2.844 1.425 2.063 0.025 4.125 0.006 6.181 0.006 0.469 0 0.925-0.1 1.363-0.275 1.156-0.469 2.087-1.55 2.050-2.994-0.025-1.075 0-2.144 0-3.212z"></path>
<path fill="#fff" d="M16.038 19.256c-1.994-0.006-3.581-1.594-3.575-3.575 0.006-1.931 1.625-3.506 3.6-3.5s3.575 1.6 3.569 3.556c0 1.95-1.613 3.525-3.594 3.519zM16.063 13.319c-1.356 0-2.45 1.069-2.456 2.394 0 1.319 1.094 2.4 2.431 2.406 1.356 0 2.456-1.069 2.462-2.387 0-1.325-1.094-2.412-2.438-2.412z"></path>
<path fill="#fff" d="M20.806 11.894c0 0.431-0.344 0.787-0.762 0.781-0.413 0-0.75-0.363-0.744-0.794 0-0.425 0.344-0.775 0.756-0.775s0.75 0.356 0.75 0.787z"></path>
</svg>
