<!-- Generated by IcoMoon.io -->
<svg version="1.1" xmlns="http://www.w3.org/2000/svg" width="32" height="32" viewBox="0 0 32 32">
<title>instagram_photo_share_icon</title>
<path d="M20.75 5.75c3.038 0 5.5 2.462 5.5 5.5v0 9.5c0 3.038-2.462 5.5-5.5 5.5v0h-9.5c-3.038 0-5.5-2.462-5.5-5.5v0-9.5c0-3.038 2.462-5.5 5.5-5.5v0h9.5zM20.75 3.75h-9.5c-4.137 0.013-7.487 3.363-7.5 7.499v9.501c0.013 4.137 3.363 7.487 7.499 7.5h9.501c4.137-0.013 7.487-3.363 7.5-7.499v-9.501c-0.013-4.137-3.363-7.487-7.499-7.5h-0.001z"></path>
<path d="M22.535 8c-0.791 0-1.433 0.641-1.433 1.433s0.641 1.433 1.433 1.433c0.791 0 1.433-0.641 1.433-1.433v0c0-0.791-0.641-1.433-1.433-1.433v0z"></path>
<path d="M16.067 11.617c0.001 0 0.002 0 0.003 0 2.441 0 4.42 1.979 4.42 4.42s-1.979 4.42-4.42 4.42c-2.441 0-4.42-1.979-4.42-4.42 0-0.001 0-0.002 0-0.003v0c0.004-2.438 1.979-4.413 4.417-4.418h0zM16.067 9.617c-3.54 0.007-6.407 2.879-6.407 6.42 0 3.546 2.874 6.42 6.42 6.42s6.42-2.874 6.42-6.42c0-0.001 0-0.002 0-0.003v0c-0.001-3.545-2.875-6.418-6.42-6.418-0.004 0-0.009 0-0.013 0h0.001z"></path>
</svg>
