<!-- Generated by IcoMoon.io -->
<svg version="1.1" xmlns="http://www.w3.org/2000/svg" width="32" height="32" viewBox="0 0 32 32">
<title>linkedin_logo_icon</title>
<path d="M4.983 8.875h-0.043c-2.283 0-3.94-1.514-3.94-3.6 0-2.089 1.692-3.606 4.023-3.606 2.292 0 3.928 1.476 3.977 3.589 0 2.101-1.689 3.617-4.017 3.617zM5.023 2.669c-1.78 0-3.023 1.072-3.023 2.606 0 1.531 1.209 2.601 2.94 2.601h0.043c1.777-0.001 3.017-1.072 3.017-2.606-0.037-1.576-1.205-2.601-2.977-2.601z"></path>
<path d="M7.5 29h-5c-0.276 0-0.5-0.224-0.5-0.5v-18c0-0.276 0.224-0.5 0.5-0.5h5c0.276 0 0.5 0.224 0.5 0.5v18c0 0.276-0.224 0.5-0.5 0.5zM3 28h4v-17h-4v17z"></path>
<path d="M30.5 29h-6c-0.276 0-0.5-0.224-0.5-0.5v-9.5c0-1.654-1.346-3-3-3s-3 1.346-3 3v9.5c0 0.276-0.224 0.5-0.5 0.5h-6c-0.276 0-0.5-0.224-0.5-0.5v-18c0-0.276 0.224-0.5 0.5-0.5h6c0.276 0 0.5 0.224 0.5 0.5v3.014c0 0.276-0.224 0.5-0.5 0.5s-0.5-0.224-0.5-0.5v-2.514h-5v17h5v-9c0-2.206 1.794-4 4-4s4 1.794 4 4v9h5v-10.5c0-3.584-2.916-6.5-6.5-6.5-1.384 0-2.722 0.406-3.871 1.173-0.229 0.152-0.54 0.092-0.693-0.138s-0.092-0.54 0.139-0.693c1.313-0.878 2.843-1.342 4.425-1.342 4.136 0 7.5 3.364 7.5 7.5v11c0 0.276-0.224 0.5-0.5 0.5z"></path>
</svg>
