<!-- Generated by IcoMoon.io -->
<svg version="1.1" xmlns="http://www.w3.org/2000/svg" width="32" height="32" viewBox="0 0 32 32">
<title>github_hexagon_media_polygon_social_icon</title>
<path fill="#000" d="M27.606 24.506l-10.044 5.8c-0.969 0.556-2.156 0.556-3.125 0l-10.044-5.8c-0.969-0.556-1.563-1.587-1.563-2.706v-11.6c0-1.119 0.594-2.15 1.563-2.706l10.044-5.8c0.969-0.556 2.156-0.556 3.125 0l10.044 5.8c0.969 0.556 1.563 1.587 1.563 2.706v11.6c0 1.113-0.594 2.15-1.563 2.706z"></path>
<path fill="#fff" d="M18.131 19.413c0.087 0.075 0.050 0.175 0.050 0.262 0 1.206 0 2.413 0 3.619 0 0.025 0.006 0.050 0.006 0.075-1.438 0-2.887 0-4.325 0 0.019-0.712 0.019-1.425 0-2.131 0.131 0.006 0.069 0.106 0.069 0.156 0.006 0.569 0.006 1.144 0 1.712-0.006 0.163 0.050 0.206 0.206 0.206 1.256-0.006 2.513-0.006 3.769 0 0.181 0 0.206-0.063 0.206-0.219-0.006-1.031-0.006-2.063-0.006-3.1 0.019-0.194 0.025-0.387 0.025-0.581z"></path>
<path fill="#fff" d="M18.131 19.413c-0.006 0.194-0.006 0.394-0.006 0.587 0 1.031-0.006 2.063 0.006 3.1 0 0.156-0.031 0.225-0.206 0.219-1.256-0.006-2.512-0.006-3.769 0-0.156 0-0.213-0.044-0.206-0.206 0.006-0.569 0.006-1.144 0-1.712 0-0.050 0.063-0.156-0.069-0.156-0.031 0-0.050 0.006-0.081 0.006-0.050-0.025-0.1-0.019-0.137 0.038-0.506 0.050-1.019 0.094-1.519-0.031-0.887-0.225-1.525-0.75-1.919-1.587-0.25-0.544-0.588-1.050-0.975-1.519-0.125-0.15-0.319-0.206-0.45-0.35-0.050-0.056-0.131-0.1-0.106-0.181 0.025-0.094 0.125-0.087 0.206-0.1 0.819-0.069 1.394 0.319 1.8 0.988 0.369 0.613 0.856 1.063 1.556 1.25 0.5 0.131 0.994 0.1 1.488-0.050 0.113-0.038 0.175-0.087 0.188-0.225 0.037-0.506 0.144-0.994 0.494-1.425-0.137-0.025-0.244-0.050-0.35-0.063-0.863-0.131-1.669-0.431-2.369-0.962-0.781-0.594-1.262-1.394-1.419-2.369-0.131-0.85-0.081-1.713 0.031-2.563 0.088-0.656 0.269-1.281 0.744-1.769 0.169-0.169 0.181-0.313 0.106-0.525-0.25-0.725-0.181-1.456 0.044-2.181 0.044-0.138 0.1-0.175 0.25-0.138 0.55 0.138 0.975 0.456 1.356 0.85 0.188 0.188 0.35 0.4 0.5 0.613 0.044 0.063 0.075 0.094 0.156 0.031 0.294-0.231 0.65-0.306 1.006-0.356 1.031-0.15 2.063-0.15 3.087-0.006 0.344 0.050 0.688 0.113 0.975 0.325 0.137 0.1 0.188 0.044 0.262-0.063 0.275-0.4 0.606-0.744 1-1.025 0.25-0.181 0.525-0.3 0.831-0.375 0.131-0.031 0.181 0.006 0.225 0.125 0.275 0.781 0.319 1.569 0.006 2.35-0.038 0.1-0.063 0.169 0.031 0.25 0.5 0.475 0.738 1.075 0.837 1.744 0.119 0.806 0.188 1.619 0.094 2.438-0.156 1.381-0.856 2.381-2.075 3.038-0.044-0.006-0.081 0.006-0.1 0.050-0.031 0.019-0.063 0.031-0.094 0.044-0.106 0.006-0.194 0.050-0.269 0.119-0.031 0.012-0.069 0.019-0.1 0.031-0.050-0.012-0.081 0.006-0.1 0.050-0.019 0.006-0.044 0.012-0.063 0.019-0.163 0.025-0.325 0.044-0.462 0.144-0.019 0.006-0.044 0.006-0.063 0.012-0.119-0.006-0.238 0.006-0.337 0.075-0.087 0.012-0.175 0.025-0.262 0.038-0.069 0.006-0.15-0.006-0.206 0.019-0.063 0.031-0.038 0.069 0.019 0.087l0.006 0.006c0.006 0.056 0.031 0.1 0.087 0.113 0.031 0.063 0.063 0.131 0.1 0.194 0.006 0.087 0.025 0.169 0.1 0.225 0.006 0.038 0.019 0.069 0.025 0.106 0.019 0.113 0.019 0.231 0.087 0.331 0.006 0.025 0.006 0.050 0.012 0.069-0.025 0.050-0.012 0.094 0.025 0.137-0.031 0.031-0.031 0.075-0.031 0.119z"></path>
<path fill="#fff" d="M18.55 17.881c0.137-0.1 0.3-0.119 0.462-0.144-0.15 0.063-0.288 0.163-0.462 0.144z"></path>
<path fill="#fff" d="M18.144 17.975c0.1-0.075 0.219-0.075 0.337-0.075-0.094 0.075-0.212 0.087-0.337 0.075z"></path>
<path fill="#fff" d="M18.087 19.087c-0.069-0.1-0.069-0.219-0.087-0.331 0.087 0.094 0.119 0.206 0.087 0.331z"></path>
<path fill="#fff" d="M19.281 17.631c0.075-0.069 0.163-0.119 0.269-0.119-0.069 0.081-0.156 0.131-0.269 0.119z"></path>
<path fill="#fff" d="M17.694 18.119c-0.063-0.019-0.087-0.056-0.019-0.087 0.063-0.025 0.137-0.019 0.206-0.019-0.044 0.069-0.163 0.006-0.188 0.106z"></path>
<path fill="#fff" d="M17.975 18.65c-0.075-0.056-0.087-0.137-0.1-0.225 0.087 0.056 0.094 0.137 0.1 0.225z"></path>
<path fill="#fff" d="M18.125 19.294c-0.038-0.044-0.044-0.081-0.025-0.137 0.050 0.038 0.063 0.081 0.025 0.137z"></path>
<path fill="#fff" d="M13.656 21.281c0.031-0.056 0.075-0.056 0.137-0.038-0.037 0.038-0.081 0.063-0.137 0.038z"></path>
<path fill="#fff" d="M17.788 18.231c-0.056-0.019-0.081-0.056-0.087-0.113 0.063 0.012 0.087 0.056 0.087 0.113z"></path>
<path fill="#fff" d="M19.65 17.469c0.019-0.044 0.056-0.056 0.1-0.050-0.012 0.050-0.044 0.081-0.1 0.050z"></path>
<path fill="#fff" d="M19.081 17.719c0.019-0.044 0.050-0.063 0.1-0.050-0.019 0.050-0.044 0.075-0.1 0.050z"></path>
</svg>
