<!-- Generated by IcoMoon.io -->
<svg version="1.1" xmlns="http://www.w3.org/2000/svg" width="32" height="32" viewBox="0 0 32 32">
<title>hexagon_in_linked_media_polygon_icon</title>
<path fill="#007bb5" d="M27.606 24.506l-10.044 5.8c-0.969 0.556-2.156 0.556-3.125 0l-10.044-5.8c-0.969-0.556-1.563-1.587-1.563-2.706v-11.6c0-1.119 0.594-2.15 1.563-2.706l10.044-5.8c0.969-0.556 2.156-0.556 3.125 0l10.044 5.8c0.969 0.556 1.563 1.587 1.563 2.706v11.6c0 1.113-0.594 2.15-1.563 2.706z"></path>
<path fill="#fff" d="M17.044 15.037c0.163-0.2 0.288-0.394 0.444-0.556 0.3-0.306 0.644-0.525 1.050-0.662 0.45-0.15 0.913-0.175 1.369-0.125 0.744 0.069 1.394 0.363 1.894 0.925 0.238 0.262 0.413 0.569 0.538 0.9 0.1 0.256 0.175 0.519 0.225 0.794 0.038 0.231 0.087 0.469 0.087 0.706 0 1.65 0 3.306 0.006 4.956 0 0.081-0.019 0.106-0.106 0.106-0.756 0-1.512-0.006-2.269 0-0.106 0-0.125-0.038-0.125-0.131 0-1.444 0-2.887 0-4.331 0-0.262-0.019-0.531-0.094-0.781-0.131-0.425-0.394-0.731-0.825-0.887-0.363-0.131-0.731-0.156-1.1-0.063-0.406 0.106-0.694 0.369-0.9 0.731-0.113 0.2-0.156 0.413-0.181 0.644-0.019 0.175-0.019 0.35-0.019 0.525 0 1.381 0 2.769 0 4.15 0 0.119-0.031 0.144-0.144 0.144-0.731-0.006-1.463-0.006-2.194 0-0.131 0-0.15-0.044-0.15-0.156 0.006-2.55 0.006-5.094 0.006-7.644 0-0.3 0-0.3 0.3-0.3 0.688 0 1.375 0 2.062 0 0.094 0 0.119 0.031 0.119 0.125 0.006 0.294 0.006 0.594 0.006 0.931z"></path>
<path fill="#fff" d="M10.506 18.063c0-1.294 0-2.588 0-3.881 0-0.106 0.025-0.144 0.137-0.144 0.744 0.006 1.488 0.006 2.231 0 0.113 0 0.137 0.037 0.137 0.144 0 2.581 0 5.169 0 7.75 0 0.113-0.025 0.15-0.144 0.15-0.744-0.006-1.488-0.006-2.231 0-0.106 0-0.131-0.031-0.131-0.137 0.006-1.294 0-2.587 0-3.881z"></path>
<path fill="#fff" d="M11.725 9.919c0.806-0.025 1.275 0.569 1.281 1.269 0 0.719-0.506 1.256-1.294 1.256-0.762 0-1.269-0.525-1.275-1.269 0-0.706 0.512-1.281 1.287-1.256z"></path>
</svg>
