<svg aria-hidden="true" style="position: absolute; width: 0; height: 0; overflow: hidden;" version="1.1" xmlns="http://www.w3.org/2000/svg" xmlns:xlink="http://www.w3.org/1999/xlink">
<defs>
<symbol id="icon-map-pin" viewBox="0 0 32 32">
<path fill="none" stroke="#fff" style="stroke: var(--color1, #fff)" stroke-linejoin="round" stroke-linecap="round" stroke-miterlimit="4" stroke-width="2.6667" d="M28 13.333c0 9.333-12 17.333-12 17.333s-12-8-12-17.333c0-3.183 1.264-6.235 3.515-8.485s5.303-3.515 8.485-3.515c3.183 0 6.235 1.264 8.485 3.515s3.515 5.303 3.515 8.485z"></path>
<path fill="none" stroke="#fff" style="stroke: var(--color1, #fff)" stroke-linejoin="round" stroke-linecap="round" stroke-miterlimit="4" stroke-width="2.6667" d="M16 17.333c2.209 0 4-1.791 4-4s-1.791-4-4-4-4 1.791-4 4c0 2.209 1.791 4 4 4z"></path>
</symbol>
<symbol id="icon-whatsapp_logo_icon" viewBox="0 0 32 32">
<path fill="#25d366" style="fill: var(--color2, #25d366)" d="M16 0.813c-8.387 0-15.188 6.8-15.188 15.188 0 3.069 0.913 5.931 2.481 8.319l-1.956 6.625 6.881-1.906c2.275 1.363 4.938 2.144 7.781 2.144 8.387 0 15.188-6.8 15.188-15.188 0-8.381-6.8-15.181-15.188-15.181z"></path>
<path fill="#fff" style="fill: var(--color1, #fff)" d="M24.344 20.169c-0.019-0.2-0.137-0.375-0.319-0.456-1.225-0.563-2.456-1.125-3.681-1.688-0.137-0.063-0.306-0.031-0.406 0.087l-1.663 1.875c-0.131 0.15-0.337 0.2-0.519 0.125-0.863-0.356-2.025-0.956-3.2-1.969-1.406-1.206-2.231-2.5-2.694-3.344 0.231-0.156 0.863-0.625 1.144-1.494 0-0.006 0.006-0.012 0.006-0.012 0.175-0.537 0.137-1.119-0.056-1.65-0.331-0.881-0.994-2.588-1.25-2.85-0.044-0.044-0.094-0.088-0.094-0.088-0.188-0.169-0.431-0.262-0.688-0.275-0.088-0.006-0.181-0.006-0.281-0.006-0.287-0.006-0.544-0.006-0.731 0.019-0.531 0.075-0.919 0.431-1.162 0.731-0.294 0.356-0.644 0.887-0.875 1.588-0.019 0.063-0.037 0.119-0.056 0.181-0.256 0.887-0.206 1.838 0.1 2.713 0.287 0.819 0.706 1.794 1.338 2.825 1.069 1.756 2.231 2.844 3.019 3.563 0.887 0.819 1.988 1.825 3.731 2.663 1.613 0.775 3.075 1.063 4.056 1.181 0.4 0.038 1.137 0.044 1.981-0.275 0.387-0.15 0.712-0.331 0.975-0.525 0.694-0.494 1.181-1.238 1.306-2.075 0-0.006 0-0.012 0-0.019 0.044-0.319 0.038-0.594 0.019-0.825z"></path>
</symbol>
<symbol id="icon-facebook_social_icon" viewBox="0 0 32 32">
<path d="M18 12v-2.381c0-1.075 0.238-1.619 1.906-1.619h2.094v-4h-3.494c-4.281 0-5.694 1.963-5.694 5.331v2.669h-2.813v4h2.813v12h5.187v-12h3.525l0.475-4h-4zM20.637 15h-3.637v12h-3.188v-12h-2.813v-2h2.813v-3.669c0-1.531 0.338-2.575 0.969-3.237 0.7-0.75 1.944-1.094 3.725-1.094h2.494v2h-1.094c-0.75 0-1.719 0.069-2.319 0.731-0.506 0.563-0.587 1.256-0.587 1.881v3.387h3.875l-0.238 2z"></path>
</symbol>
<symbol id="icon-github_logo_social-network_social_icon" viewBox="0 0 32 32">
<path d="M18.508 22.136c3.118-0.368 6.434-1.502 6.434-6.887 0-1.531-0.539-2.778-1.417-3.742 0.142-0.368 0.595-1.757-0.171-3.684 0 0-1.134-0.369-3.797 1.417-1.134-0.311-2.381-0.51-3.543-0.51-1.191 0-2.438 0.199-3.544 0.51-2.693-1.785-3.826-1.417-3.826-1.417-0.765 1.927-0.311 3.316-0.17 3.684-0.879 0.964-1.417 2.211-1.417 3.742 0 5.385 3.316 6.519 6.434 6.887-0.396 0.341-0.765 0.992-0.907 1.899-0.794 0.34-2.863 0.992-4.11-1.162 0 0-0.737-1.332-2.126-1.417 0 0-1.389-0.028-0.113 0.849 0 0 0.935 0.426 1.559 2.041 0 0 0.85 2.693 4.761 1.843v2.409c0 0.369-0.283 0.794-0.992 0.681-5.556-1.843-9.552-7.114-9.552-13.293 0-7.738 6.263-14.001 14.002-14.001 7.709 0 14.001 6.264 13.973 14.001 0 6.178-3.997 11.422-9.552 13.293-0.709 0.142-0.992-0.283-0.992-0.681v-3.882c0-1.305-0.426-2.154-0.935-2.58v0zM32 16.014c0-8.844-7.171-16.014-15.986-16.014-8.844 0-16.014 7.171-16.014 16.014 0 8.815 7.171 15.986 16.014 15.986 8.815 0 15.986-7.171 15.986-15.986v0z"></path>
</symbol>
<symbol id="icon-facebook_hexagon_media_polygon_social_icon" viewBox="0 0 32 32">
<path fill="#3b5999" style="fill: var(--color3, #3b5999)" d="M27.606 24.506l-10.044 5.8c-0.969 0.556-2.156 0.556-3.125 0l-10.044-5.8c-0.969-0.556-1.563-1.587-1.563-2.706v-11.6c0-1.119 0.594-2.15 1.563-2.706l10.044-5.8c0.969-0.556 2.156-0.556 3.125 0l10.044 5.8c0.969 0.556 1.563 1.587 1.563 2.706v11.6c0 1.113-0.594 2.15-1.563 2.706z"></path>
<path fill="#fff" style="fill: var(--color1, #fff)" d="M17.119 21.575c0 1.506-0.006 3.006 0.006 4.512 0 0.163-0.038 0.206-0.206 0.206-1.281-0.006-2.563-0.006-3.844 0-0.175 0-0.219-0.050-0.219-0.219 0.006-2.988 0.006-5.981 0.006-8.969 0-0.163-0.031-0.225-0.206-0.219-0.569 0.012-1.131 0-1.7 0.006-0.131 0-0.169-0.038-0.169-0.169 0.006-0.944 0.006-1.894 0-2.838 0-0.144 0.050-0.175 0.181-0.169 0.569 0.006 1.131-0.006 1.7 0.006 0.162 0.006 0.194-0.050 0.194-0.2-0.006-0.831-0.006-1.669 0-2.5 0.006-0.719 0.15-1.4 0.581-2.006 0.45-0.644 1.081-1.031 1.813-1.263 0.55-0.175 1.112-0.25 1.688-0.256 1.081-0.013 2.163-0.006 3.244-0.013 0.15 0 0.188 0.050 0.188 0.194-0.006 0.969-0.006 1.938 0 2.912 0 0.162-0.050 0.194-0.2 0.194-0.681-0.006-1.369-0.006-2.050-0.006-0.6 0-0.994 0.394-0.994 0.988 0 0.588 0.006 1.181-0.006 1.775 0 0.144 0.044 0.181 0.181 0.181 0.956-0.006 1.913 0 2.875-0.006 0.144 0 0.2 0.031 0.181 0.188-0.106 0.969-0.194 1.938-0.369 2.9-0.025 0.119-0.1 0.087-0.163 0.087-0.569 0-1.131 0-1.7 0-0.275 0-0.55 0.006-0.819-0.006-0.15-0.006-0.2 0.038-0.194 0.194 0 1.494 0 2.994 0 4.494z"></path>
</symbol>
<symbol id="icon-github_hexagon_media_polygon_social_icon" viewBox="0 0 32 32">
<path fill="#000" style="fill: var(--color4, #000)" d="M27.606 24.506l-10.044 5.8c-0.969 0.556-2.156 0.556-3.125 0l-10.044-5.8c-0.969-0.556-1.563-1.587-1.563-2.706v-11.6c0-1.119 0.594-2.15 1.563-2.706l10.044-5.8c0.969-0.556 2.156-0.556 3.125 0l10.044 5.8c0.969 0.556 1.563 1.587 1.563 2.706v11.6c0 1.113-0.594 2.15-1.563 2.706z"></path>
<path fill="#fff" style="fill: var(--color1, #fff)" d="M18.131 19.413c0.087 0.075 0.050 0.175 0.050 0.262 0 1.206 0 2.413 0 3.619 0 0.025 0.006 0.050 0.006 0.075-1.438 0-2.887 0-4.325 0 0.019-0.712 0.019-1.425 0-2.131 0.131 0.006 0.069 0.106 0.069 0.156 0.006 0.569 0.006 1.144 0 1.712-0.006 0.163 0.050 0.206 0.206 0.206 1.256-0.006 2.513-0.006 3.769 0 0.181 0 0.206-0.063 0.206-0.219-0.006-1.031-0.006-2.063-0.006-3.1 0.019-0.194 0.025-0.387 0.025-0.581z"></path>
<path fill="#fff" style="fill: var(--color1, #fff)" d="M18.131 19.413c-0.006 0.194-0.006 0.394-0.006 0.587 0 1.031-0.006 2.063 0.006 3.1 0 0.156-0.031 0.225-0.206 0.219-1.256-0.006-2.512-0.006-3.769 0-0.156 0-0.213-0.044-0.206-0.206 0.006-0.569 0.006-1.144 0-1.712 0-0.050 0.063-0.156-0.069-0.156-0.031 0-0.050 0.006-0.081 0.006-0.050-0.025-0.1-0.019-0.137 0.038-0.506 0.050-1.019 0.094-1.519-0.031-0.887-0.225-1.525-0.75-1.919-1.587-0.25-0.544-0.588-1.050-0.975-1.519-0.125-0.15-0.319-0.206-0.45-0.35-0.050-0.056-0.131-0.1-0.106-0.181 0.025-0.094 0.125-0.087 0.206-0.1 0.819-0.069 1.394 0.319 1.8 0.988 0.369 0.613 0.856 1.063 1.556 1.25 0.5 0.131 0.994 0.1 1.488-0.050 0.113-0.038 0.175-0.087 0.188-0.225 0.037-0.506 0.144-0.994 0.494-1.425-0.137-0.025-0.244-0.050-0.35-0.063-0.863-0.131-1.669-0.431-2.369-0.962-0.781-0.594-1.262-1.394-1.419-2.369-0.131-0.85-0.081-1.713 0.031-2.563 0.088-0.656 0.269-1.281 0.744-1.769 0.169-0.169 0.181-0.313 0.106-0.525-0.25-0.725-0.181-1.456 0.044-2.181 0.044-0.138 0.1-0.175 0.25-0.138 0.55 0.138 0.975 0.456 1.356 0.85 0.188 0.188 0.35 0.4 0.5 0.613 0.044 0.063 0.075 0.094 0.156 0.031 0.294-0.231 0.65-0.306 1.006-0.356 1.031-0.15 2.063-0.15 3.087-0.006 0.344 0.050 0.688 0.113 0.975 0.325 0.137 0.1 0.188 0.044 0.262-0.063 0.275-0.4 0.606-0.744 1-1.025 0.25-0.181 0.525-0.3 0.831-0.375 0.131-0.031 0.181 0.006 0.225 0.125 0.275 0.781 0.319 1.569 0.006 2.35-0.038 0.1-0.063 0.169 0.031 0.25 0.5 0.475 0.738 1.075 0.837 1.744 0.119 0.806 0.188 1.619 0.094 2.438-0.156 1.381-0.856 2.381-2.075 3.038-0.044-0.006-0.081 0.006-0.1 0.050-0.031 0.019-0.063 0.031-0.094 0.044-0.106 0.006-0.194 0.050-0.269 0.119-0.031 0.012-0.069 0.019-0.1 0.031-0.050-0.012-0.081 0.006-0.1 0.050-0.019 0.006-0.044 0.012-0.063 0.019-0.163 0.025-0.325 0.044-0.462 0.144-0.019 0.006-0.044 0.006-0.063 0.012-0.119-0.006-0.238 0.006-0.337 0.075-0.087 0.012-0.175 0.025-0.262 0.038-0.069 0.006-0.15-0.006-0.206 0.019-0.063 0.031-0.038 0.069 0.019 0.087l0.006 0.006c0.006 0.056 0.031 0.1 0.087 0.113 0.031 0.063 0.063 0.131 0.1 0.194 0.006 0.087 0.025 0.169 0.1 0.225 0.006 0.038 0.019 0.069 0.025 0.106 0.019 0.113 0.019 0.231 0.087 0.331 0.006 0.025 0.006 0.050 0.012 0.069-0.025 0.050-0.012 0.094 0.025 0.137-0.031 0.031-0.031 0.075-0.031 0.119z"></path>
<path fill="#fff" style="fill: var(--color1, #fff)" d="M18.55 17.881c0.137-0.1 0.3-0.119 0.462-0.144-0.15 0.063-0.288 0.163-0.462 0.144z"></path>
<path fill="#fff" style="fill: var(--color1, #fff)" d="M18.144 17.975c0.1-0.075 0.219-0.075 0.337-0.075-0.094 0.075-0.212 0.087-0.337 0.075z"></path>
<path fill="#fff" style="fill: var(--color1, #fff)" d="M18.087 19.087c-0.069-0.1-0.069-0.219-0.087-0.331 0.087 0.094 0.119 0.206 0.087 0.331z"></path>
<path fill="#fff" style="fill: var(--color1, #fff)" d="M19.281 17.631c0.075-0.069 0.163-0.119 0.269-0.119-0.069 0.081-0.156 0.131-0.269 0.119z"></path>
<path fill="#fff" style="fill: var(--color1, #fff)" d="M17.694 18.119c-0.063-0.019-0.087-0.056-0.019-0.087 0.063-0.025 0.137-0.019 0.206-0.019-0.044 0.069-0.163 0.006-0.188 0.106z"></path>
<path fill="#fff" style="fill: var(--color1, #fff)" d="M17.975 18.65c-0.075-0.056-0.087-0.137-0.1-0.225 0.087 0.056 0.094 0.137 0.1 0.225z"></path>
<path fill="#fff" style="fill: var(--color1, #fff)" d="M18.125 19.294c-0.038-0.044-0.044-0.081-0.025-0.137 0.050 0.038 0.063 0.081 0.025 0.137z"></path>
<path fill="#fff" style="fill: var(--color1, #fff)" d="M13.656 21.281c0.031-0.056 0.075-0.056 0.137-0.038-0.037 0.038-0.081 0.063-0.137 0.038z"></path>
<path fill="#fff" style="fill: var(--color1, #fff)" d="M17.788 18.231c-0.056-0.019-0.081-0.056-0.087-0.113 0.063 0.012 0.087 0.056 0.087 0.113z"></path>
<path fill="#fff" style="fill: var(--color1, #fff)" d="M19.65 17.469c0.019-0.044 0.056-0.056 0.1-0.050-0.012 0.050-0.044 0.081-0.1 0.050z"></path>
<path fill="#fff" style="fill: var(--color1, #fff)" d="M19.081 17.719c0.019-0.044 0.050-0.063 0.1-0.050-0.019 0.050-0.044 0.075-0.1 0.050z"></path>
</symbol>
<symbol id="icon-hexagon_instagram_media_polygon_social_icon" viewBox="0 0 32 32">
<path fill="#bc2a8d" style="fill: var(--color5, #bc2a8d)" d="M27.606 24.506l-10.044 5.8c-0.969 0.556-2.156 0.556-3.125 0l-10.044-5.8c-0.969-0.556-1.563-1.587-1.563-2.706v-11.6c0-1.119 0.594-2.15 1.563-2.706l10.044-5.8c0.969-0.556 2.156-0.556 3.125 0l10.044 5.8c0.969 0.556 1.563 1.587 1.563 2.706v11.6c0 1.113-0.594 2.15-1.563 2.706z"></path>
<path fill="#fff" style="fill: var(--color1, #fff)" d="M23.669 16c0 1.075 0 2.156 0 3.231 0 1.825-0.887 3.094-2.475 3.913-0.65 0.337-1.356 0.488-2.087 0.488-2.075 0-4.156 0.038-6.231-0.012-1.669-0.038-3.006-0.769-3.906-2.206-0.375-0.6-0.556-1.262-0.563-1.969 0-2.275-0.012-4.556 0-6.831 0.012-1.563 0.775-2.713 2.069-3.531 0.769-0.481 1.619-0.7 2.525-0.706 2.019 0 4.038-0.012 6.063 0 1.563 0.012 2.856 0.619 3.813 1.875 0.525 0.694 0.788 1.494 0.788 2.369 0.006 1.125 0.006 2.25 0.006 3.381zM22.531 16.012c0-1.131 0-2.269 0-3.4 0-0.613-0.181-1.175-0.544-1.662-0.706-0.95-1.681-1.419-2.844-1.431-2.050-0.025-4.1-0.006-6.156-0.006-0.637 0-1.244 0.15-1.794 0.469-1.063 0.613-1.656 1.512-1.65 2.769 0.006 2.206 0 4.419 0 6.631 0 0.619 0.181 1.188 0.55 1.681 0.706 0.95 1.681 1.413 2.844 1.425 2.063 0.025 4.125 0.006 6.181 0.006 0.469 0 0.925-0.1 1.363-0.275 1.156-0.469 2.087-1.55 2.050-2.994-0.025-1.075 0-2.144 0-3.212z"></path>
<path fill="#fff" style="fill: var(--color1, #fff)" d="M16.038 19.256c-1.994-0.006-3.581-1.594-3.575-3.575 0.006-1.931 1.625-3.506 3.6-3.5s3.575 1.6 3.569 3.556c0 1.95-1.613 3.525-3.594 3.519zM16.063 13.319c-1.356 0-2.45 1.069-2.456 2.394 0 1.319 1.094 2.4 2.431 2.406 1.356 0 2.456-1.069 2.462-2.387 0-1.325-1.094-2.412-2.438-2.412z"></path>
<path fill="#fff" style="fill: var(--color1, #fff)" d="M20.806 11.894c0 0.431-0.344 0.787-0.762 0.781-0.413 0-0.75-0.363-0.744-0.794 0-0.425 0.344-0.775 0.756-0.775s0.75 0.356 0.75 0.787z"></path>
</symbol>
<symbol id="icon-hexagon_in_linked_media_polygon_icon" viewBox="0 0 32 32">
<path fill="#007bb5" style="fill: var(--color6, #007bb5)" d="M27.606 24.506l-10.044 5.8c-0.969 0.556-2.156 0.556-3.125 0l-10.044-5.8c-0.969-0.556-1.563-1.587-1.563-2.706v-11.6c0-1.119 0.594-2.15 1.563-2.706l10.044-5.8c0.969-0.556 2.156-0.556 3.125 0l10.044 5.8c0.969 0.556 1.563 1.587 1.563 2.706v11.6c0 1.113-0.594 2.15-1.563 2.706z"></path>
<path fill="#fff" style="fill: var(--color1, #fff)" d="M17.044 15.037c0.163-0.2 0.288-0.394 0.444-0.556 0.3-0.306 0.644-0.525 1.050-0.662 0.45-0.15 0.913-0.175 1.369-0.125 0.744 0.069 1.394 0.363 1.894 0.925 0.238 0.262 0.413 0.569 0.538 0.9 0.1 0.256 0.175 0.519 0.225 0.794 0.038 0.231 0.087 0.469 0.087 0.706 0 1.65 0 3.306 0.006 4.956 0 0.081-0.019 0.106-0.106 0.106-0.756 0-1.512-0.006-2.269 0-0.106 0-0.125-0.038-0.125-0.131 0-1.444 0-2.887 0-4.331 0-0.262-0.019-0.531-0.094-0.781-0.131-0.425-0.394-0.731-0.825-0.887-0.363-0.131-0.731-0.156-1.1-0.063-0.406 0.106-0.694 0.369-0.9 0.731-0.113 0.2-0.156 0.413-0.181 0.644-0.019 0.175-0.019 0.35-0.019 0.525 0 1.381 0 2.769 0 4.15 0 0.119-0.031 0.144-0.144 0.144-0.731-0.006-1.463-0.006-2.194 0-0.131 0-0.15-0.044-0.15-0.156 0.006-2.55 0.006-5.094 0.006-7.644 0-0.3 0-0.3 0.3-0.3 0.688 0 1.375 0 2.062 0 0.094 0 0.119 0.031 0.119 0.125 0.006 0.294 0.006 0.594 0.006 0.931z"></path>
<path fill="#fff" style="fill: var(--color1, #fff)" d="M10.506 18.063c0-1.294 0-2.588 0-3.881 0-0.106 0.025-0.144 0.137-0.144 0.744 0.006 1.488 0.006 2.231 0 0.113 0 0.137 0.037 0.137 0.144 0 2.581 0 5.169 0 7.75 0 0.113-0.025 0.15-0.144 0.15-0.744-0.006-1.488-0.006-2.231 0-0.106 0-0.131-0.031-0.131-0.137 0.006-1.294 0-2.587 0-3.881z"></path>
<path fill="#fff" style="fill: var(--color1, #fff)" d="M11.725 9.919c0.806-0.025 1.275 0.569 1.281 1.269 0 0.719-0.506 1.256-1.294 1.256-0.762 0-1.269-0.525-1.275-1.269 0-0.706 0.512-1.281 1.287-1.256z"></path>
</symbol>
<symbol id="icon-hexagon_media_polygon_social_twitter_icon" viewBox="0 0 32 32">
<path fill="#55acee" style="fill: var(--color7, #55acee)" d="M27.606 24.506l-10.044 5.8c-0.969 0.556-2.156 0.556-3.125 0l-10.044-5.8c-0.969-0.556-1.563-1.587-1.563-2.706v-11.6c0-1.119 0.594-2.15 1.563-2.706l10.044-5.8c0.969-0.556 2.156-0.556 3.125 0l10.044 5.8c0.969 0.556 1.563 1.587 1.563 2.706v11.6c0 1.113-0.594 2.15-1.563 2.706z"></path>
<path fill="#fff" style="fill: var(--color1, #fff)" d="M8.331 20.844c1.719 0.163 3.238-0.269 4.625-1.306-0.363-0.025-0.675-0.075-0.975-0.188-0.794-0.288-1.387-0.8-1.769-1.55-0.056-0.106-0.1-0.219-0.15-0.331-0.056-0.113 0-0.131 0.1-0.113 0.394 0.063 0.781 0.038 1.169-0.044 0.006 0 0.012-0.012 0.025-0.019 0.006-0.044-0.025-0.050-0.056-0.056-0.875-0.219-1.531-0.731-1.981-1.506-0.256-0.438-0.387-0.912-0.4-1.419 0-0.131 0.031-0.144 0.144-0.094 0.387 0.188 0.794 0.3 1.262 0.319-0.225-0.181-0.431-0.344-0.6-0.544-0.619-0.731-0.875-1.569-0.75-2.519 0.044-0.356 0.156-0.681 0.313-1.006 0.056-0.119 0.1-0.131 0.188-0.025 0.506 0.613 1.094 1.137 1.744 1.594 0.488 0.344 1.006 0.625 1.55 0.863 0.706 0.306 1.438 0.512 2.194 0.637 0.256 0.037 0.512 0.050 0.762 0.081 0.119 0.012 0.137-0.031 0.113-0.137-0.125-0.656-0.044-1.3 0.244-1.9 0.45-0.938 1.188-1.537 2.212-1.756 1.012-0.213 1.913 0.037 2.712 0.681 0.256 0.387 0.581 0.162 0.875 0.081 0.469-0.131 0.906-0.331 1.337-0.563-0.219 0.706-0.656 1.244-1.262 1.669 0.587-0.037 1.131-0.219 1.712-0.45-0.156 0.244-0.313 0.438-0.469 0.625-0.294 0.35-0.631 0.65-0.994 0.925-0.075 0.056-0.094 0.113-0.094 0.2 0.019 0.637-0.031 1.269-0.15 1.894-0.119 0.656-0.313 1.287-0.569 1.9-0.288 0.681-0.65 1.331-1.094 1.925-0.55 0.744-1.2 1.394-1.956 1.931-1.019 0.725-2.15 1.2-3.375 1.431-0.769 0.15-1.544 0.194-2.331 0.156-0.606-0.031-1.2-0.125-1.787-0.275-0.731-0.188-1.431-0.469-2.088-0.844-0.137-0.075-0.294-0.131-0.431-0.269z"></path>
</symbol>
<symbol id="icon-hexagon_media_polygon_social_t_icon" viewBox="0 0 32 32">
<path fill="#37475e" style="fill: var(--color8, #37475e)" d="M27.606 24.506l-10.044 5.8c-0.969 0.556-2.156 0.556-3.125 0l-10.044-5.8c-0.969-0.556-1.563-1.587-1.563-2.706v-11.6c0-1.119 0.594-2.15 1.563-2.706l10.044-5.8c0.969-0.556 2.156-0.556 3.125 0l10.044 5.8c0.969 0.556 1.563 1.587 1.563 2.706v11.6c0 1.113-0.594 2.15-1.563 2.706z"></path>
<path fill="#fff" style="fill: var(--color1, #fff)" d="M20.625 20.956c0.044 0.069 0.031 0.131 0.031 0.188 0 0.775 0 1.55 0.006 2.325 0 0.113-0.019 0.181-0.144 0.238-0.494 0.238-0.994 0.45-1.525 0.594-0.356 0.1-0.719 0.156-1.081 0.206-0.3 0.038-0.6 0.038-0.9 0.031-0.4-0.012-0.8-0.069-1.194-0.169-0.425-0.106-0.831-0.256-1.194-0.494-0.656-0.425-1.175-0.975-1.438-1.744-0.119-0.356-0.131-0.712-0.144-1.069-0.050-1.906-0.025-3.813-0.037-5.725 0-0.219-0.012-0.438 0-0.656 0.006-0.131-0.031-0.175-0.169-0.175-0.431 0.006-0.863-0.006-1.294 0.006-0.15 0.006-0.2-0.031-0.2-0.194 0.012-0.688 0.006-1.381 0.006-2.069 0-0.144 0.012-0.219 0.188-0.281 0.344-0.125 0.662-0.319 0.95-0.544 0.637-0.494 1.119-1.106 1.425-1.85 0.25-0.613 0.394-1.25 0.475-1.906 0.012-0.094 0.031-0.156 0.144-0.162 0.331-0.019 0.656-0.075 0.988-0.031 0.313 0.037 0.625 0.031 0.937 0.031 0.144 0 0.131 0.081 0.131 0.175 0.006 1.050 0.006 2.1 0.012 3.15 0 0.269 0.006 0.537-0.006 0.806-0.006 0.131 0.031 0.169 0.163 0.169 1.081-0.006 2.163 0 3.25-0.006 0.163 0 0.2 0.056 0.2 0.2-0.006 0.775-0.006 1.55 0 2.325 0 0.144-0.038 0.194-0.194 0.194-1.075-0.006-2.156 0-3.231-0.006-0.137 0-0.194 0.019-0.194 0.181 0.012 1.625 0.012 3.25 0.012 4.881 0 0.344 0.019 0.688 0.081 1.019 0.094 0.525 0.45 0.844 0.938 1.012 0.669 0.238 1.325 0.137 1.975-0.081 0.369-0.131 0.706-0.337 1.031-0.569z"></path>
</symbol>
<symbol id="icon-code_fork_icon" viewBox="0 0 32 32">
<path d="M12 26.286q0-0.714-0.5-1.214t-1.214-0.5-1.214 0.5-0.5 1.214 0.5 1.214 1.214 0.5 1.214-0.5 0.5-1.214zM12 5.714q0-0.714-0.5-1.214t-1.214-0.5-1.214 0.5-0.5 1.214 0.5 1.214 1.214 0.5 1.214-0.5 0.5-1.214zM23.429 8q0-0.714-0.5-1.214t-1.214-0.5-1.214 0.5-0.5 1.214 0.5 1.214 1.214 0.5 1.214-0.5 0.5-1.214zM25.143 8q0 0.929-0.464 1.723t-1.25 1.241q-0.036 5.125-4.036 7.393-1.214 0.679-3.625 1.446-2.286 0.714-3.027 1.268t-0.741 1.786v0.464q0.786 0.446 1.25 1.241t0.464 1.723q0 1.429-1 2.429t-2.429 1-2.429-1-1-2.429q0-0.929 0.464-1.723t1.25-1.241v-14.643q-0.786-0.446-1.25-1.241t-0.464-1.723q0-1.429 1-2.429t2.429-1 2.429 1 1 2.429q0 0.929-0.464 1.723t-1.25 1.241v8.875q0.964-0.464 2.75-1.018 0.982-0.304 1.563-0.527t1.259-0.554 1.054-0.705 0.723-0.911 0.5-1.241 0.152-1.634q-0.786-0.446-1.25-1.241t-0.464-1.723q0-1.429 1-2.429t2.429-1 2.429 1 1 2.429z"></path>
</symbol>
<symbol id="icon-code_icon" viewBox="0 0 32 32">
<path d="M9.875 24.982l-0.893 0.893q-0.179 0.179-0.411 0.179t-0.411-0.179l-8.321-8.321q-0.179-0.179-0.179-0.411t0.179-0.411l8.321-8.321q0.179-0.179 0.411-0.179t0.411 0.179l0.893 0.893q0.179 0.179 0.179 0.411t-0.179 0.411l-7.018 7.018 7.018 7.018q0.179 0.179 0.179 0.411t-0.179 0.411zM20.429 5.929l-6.661 23.054q-0.071 0.232-0.277 0.348t-0.42 0.045l-1.107-0.304q-0.232-0.071-0.348-0.277t-0.045-0.438l6.661-23.054q0.071-0.232 0.277-0.348t0.42-0.045l1.107 0.304q0.232 0.071 0.348 0.277t0.045 0.438zM32.161 17.554l-8.321 8.321q-0.179 0.179-0.411 0.179t-0.411-0.179l-0.893-0.893q-0.179-0.179-0.179-0.411t0.179-0.411l7.018-7.018-7.018-7.018q-0.179-0.179-0.179-0.411t0.179-0.411l0.893-0.893q0.179-0.179 0.411-0.179t0.411 0.179l8.321 8.321q0.179 0.179 0.179 0.411t-0.179 0.411z"></path>
</symbol>
<symbol id="icon-launch_open_share_icon" viewBox="0 0 32 32">
<path fill="#134563" style="fill: var(--color9, #134563)" d="M14.85 18.3l-1.15-1.15 12.9-12.85 1.1 1.1-12.85 12.9z"></path>
<path fill="#134563" style="fill: var(--color9, #134563)" d="M28 12.55h-1.7v-6.85h-6.85v-1.7h8.55v8.55z"></path>
<path fill="#134563" style="fill: var(--color9, #134563)" d="M23.7 28h-17.15c-1.4 0-2.55-1.15-2.55-2.55v-17.15c0-1.4 1.15-2.55 2.55-2.55h9.45v1.7h-9.45c-0.45 0-0.85 0.4-0.85 0.85v17.15c0 0.45 0.4 0.85 0.85 0.85h17.15c0.45 0 0.85-0.4 0.85-0.85v-9.45h1.7v9.45c0.050 1.4-1.1 2.55-2.55 2.55z"></path>
</symbol>
<symbol id="icon-github_icon" viewBox="0 0 32 32">
<path stroke-linejoin="round" stroke-linecap="round" stroke-miterlimit="4" stroke-width="2.6667" d="M12 25.333c-6.667 2-6.667-3.333-9.333-4M21.333 29.333v-5.16c0.009-0.105 0.014-0.228 0.014-0.352 0-1.216-0.483-2.32-1.268-3.129l0.001 0.001c4.187-0.467 8.587-2.053 8.587-9.333-0-1.94-0.762-3.702-2.003-5.003l0.003 0.003c0.27-0.702 0.427-1.515 0.427-2.364 0-0.962-0.201-1.878-0.564-2.707l0.017 0.044s-1.573-0.467-5.213 1.973c-1.399-0.394-3.007-0.621-4.667-0.621s-3.267 0.227-4.792 0.651l0.125-0.030c-3.64-2.44-5.213-1.973-5.213-1.973-0.346 0.785-0.547 1.701-0.547 2.663 0 0.849 0.157 1.661 0.442 2.41l-0.016-0.046c-1.238 1.299-2 3.061-2 5.001 0 0.014 0 0.027 0 0.041v-0.002c0 7.227 4.4 8.813 8.587 9.333-0.782 0.808-1.264 1.91-1.264 3.125 0 0.111 0.004 0.221 0.012 0.33l-0.001-0.015v5.16"></path>
</symbol>
<symbol id="icon-code_icon1" viewBox="0 0 32 32">
<path d="M27.453 16l-4.4-4.4c-0.282-0.246-0.459-0.605-0.459-1.006 0-0.736 0.597-1.333 1.333-1.333 0.408 0 0.772 0.183 1.017 0.471l0.002 0.002 5.333 5.333c0.236 0.24 0.381 0.57 0.381 0.933s-0.145 0.693-0.381 0.934l-5.333 5.333c-0.233 0.203-0.539 0.327-0.875 0.327-0.736 0-1.333-0.597-1.333-1.333 0-0.329 0.119-0.63 0.316-0.862l-0.002 0.002 4.4-4.4zM4.533 16l4.4 4.4c0.196 0.231 0.315 0.532 0.315 0.86 0 0.736-0.597 1.333-1.333 1.333-0.335 0-0.642-0.124-0.876-0.328l0.002 0.001-5.333-5.333c-0.236-0.24-0.381-0.57-0.381-0.933s0.145-0.693 0.381-0.934l5.333-5.333c0.233-0.203 0.539-0.327 0.875-0.327 0.736 0 1.333 0.597 1.333 1.333 0 0.329-0.119 0.63-0.316 0.862l0.002-0.002-4.4 4.4zM14.613 26.987c-0.166 0.561-0.676 0.963-1.281 0.963-0.736 0-1.333-0.597-1.333-1.333 0-0.096 0.010-0.189 0.029-0.279l-0.002 0.009 5.333-21.333c0.13-0.611 0.665-1.063 1.306-1.063 0.736 0 1.333 0.597 1.333 1.333 0 0.132-0.019 0.259-0.055 0.38l0.002-0.009-5.333 21.333z"></path>
</symbol>
<symbol id="icon-instagram_photo_share_icon" viewBox="0 0 32 32">
<path d="M20.75 5.75c3.038 0 5.5 2.462 5.5 5.5v0 9.5c0 3.038-2.462 5.5-5.5 5.5v0h-9.5c-3.038 0-5.5-2.462-5.5-5.5v0-9.5c0-3.038 2.462-5.5 5.5-5.5v0h9.5zM20.75 3.75h-9.5c-4.137 0.013-7.487 3.363-7.5 7.499v9.501c0.013 4.137 3.363 7.487 7.499 7.5h9.501c4.137-0.013 7.487-3.363 7.5-7.499v-9.501c-0.013-4.137-3.363-7.487-7.499-7.5h-0.001z"></path>
<path d="M22.535 8c-0.791 0-1.433 0.641-1.433 1.433s0.641 1.433 1.433 1.433c0.791 0 1.433-0.641 1.433-1.433v0c0-0.791-0.641-1.433-1.433-1.433v0z"></path>
<path d="M16.067 11.617c0.001 0 0.002 0 0.003 0 2.441 0 4.42 1.979 4.42 4.42s-1.979 4.42-4.42 4.42c-2.441 0-4.42-1.979-4.42-4.42 0-0.001 0-0.002 0-0.003v0c0.004-2.438 1.979-4.413 4.417-4.418h0zM16.067 9.617c-3.54 0.007-6.407 2.879-6.407 6.42 0 3.546 2.874 6.42 6.42 6.42s6.42-2.874 6.42-6.42c0-0.001 0-0.002 0-0.003v0c-0.001-3.545-2.875-6.418-6.42-6.418-0.004 0-0.009 0-0.013 0h0.001z"></path>
</symbol>
<symbol id="icon-code_html_icon" viewBox="0 0 32 32">
<path fill="#4c9ae8" style="fill: var(--color10, #4c9ae8)" d="M20.857 24.476l-1.885-1.885 6.609-6.591-6.543-6.524 1.885-1.885 8.409 8.409-8.476 8.476z"></path>
<path fill="#4c9ae8" style="fill: var(--color10, #4c9ae8)" d="M11.143 24.476l1.885-1.885-6.609-6.591 6.543-6.524-1.885-1.885-8.409 8.409 8.476 8.476z"></path>
</symbol>
<symbol id="icon-adaptive_design_responsive_responsive-design_icon" viewBox="0 0 32 32">
<path d="M1.5 20c-0.276 0-0.5-0.224-0.5-0.5v-16c0-0.827 0.673-1.5 1.5-1.5h27c0.827 0 1.5 0.673 1.5 1.5v1.5c0 0.276-0.224 0.5-0.5 0.5s-0.5-0.224-0.5-0.5v-1.5c0-0.275-0.225-0.5-0.5-0.5h-27c-0.275 0-0.5 0.225-0.5 0.5v16c0 0.276-0.224 0.5-0.5 0.5z"></path>
<path d="M16 31h-5.5c-0.276 0-0.5-0.224-0.5-0.5s0.224-0.5 0.5-0.5h1c0.827 0 1.5-0.673 1.5-1.5v-2.5c0-0.276 0.224-0.5 0.5-0.5s0.5 0.224 0.5 0.5v2.5c0 0.563-0.187 1.082-0.501 1.5h2.501c0.276 0 0.5 0.224 0.5 0.5s-0.224 0.5-0.5 0.5z"></path>
<path d="M15.5 26h-13c-0.827 0-1.5-0.673-1.5-1.5v-3c0-0.276 0.224-0.5 0.5-0.5h14c0.276 0 0.5 0.224 0.5 0.5s-0.224 0.5-0.5 0.5h-13.5v2.5c0 0.275 0.225 0.5 0.5 0.5h13c0.276 0 0.5 0.224 0.5 0.5s-0.224 0.5-0.5 0.5z"></path>
<path d="M21.5 9h5c0.276 0 0.5-0.224 0.5-0.5s-0.224-0.5-0.5-0.5h-5c-0.276 0-0.5 0.224-0.5 0.5s0.224 0.5 0.5 0.5z"></path>
<path d="M23.5 29h1c0.276 0 0.5-0.224 0.5-0.5s-0.224-0.5-0.5-0.5h-1c-0.276 0-0.5 0.224-0.5 0.5s0.224 0.5 0.5 0.5z"></path>
<path d="M28.5 31h-9c-1.379 0-2.5-1.121-2.5-2.5v-20c0-1.379 1.121-2.5 2.5-2.5h9c1.379 0 2.5 1.121 2.5 2.5v20c0 1.379-1.121 2.5-2.5 2.5zM19.5 7c-0.827 0-1.5 0.673-1.5 1.5v20c0 0.827 0.673 1.5 1.5 1.5h9c0.827 0 1.5-0.673 1.5-1.5v-20c0-0.827-0.673-1.5-1.5-1.5h-9z"></path>
</symbol>
<symbol id="icon-linkedin_logo_icon" viewBox="0 0 32 32">
<path d="M4.983 8.875h-0.043c-2.283 0-3.94-1.514-3.94-3.6 0-2.089 1.692-3.606 4.023-3.606 2.292 0 3.928 1.476 3.977 3.589 0 2.101-1.689 3.617-4.017 3.617zM5.023 2.669c-1.78 0-3.023 1.072-3.023 2.606 0 1.531 1.209 2.601 2.94 2.601h0.043c1.777-0.001 3.017-1.072 3.017-2.606-0.037-1.576-1.205-2.601-2.977-2.601z"></path>
<path d="M7.5 29h-5c-0.276 0-0.5-0.224-0.5-0.5v-18c0-0.276 0.224-0.5 0.5-0.5h5c0.276 0 0.5 0.224 0.5 0.5v18c0 0.276-0.224 0.5-0.5 0.5zM3 28h4v-17h-4v17z"></path>
<path d="M30.5 29h-6c-0.276 0-0.5-0.224-0.5-0.5v-9.5c0-1.654-1.346-3-3-3s-3 1.346-3 3v9.5c0 0.276-0.224 0.5-0.5 0.5h-6c-0.276 0-0.5-0.224-0.5-0.5v-18c0-0.276 0.224-0.5 0.5-0.5h6c0.276 0 0.5 0.224 0.5 0.5v3.014c0 0.276-0.224 0.5-0.5 0.5s-0.5-0.224-0.5-0.5v-2.514h-5v17h5v-9c0-2.206 1.794-4 4-4s4 1.794 4 4v9h5v-10.5c0-3.584-2.916-6.5-6.5-6.5-1.384 0-2.722 0.406-3.871 1.173-0.229 0.152-0.54 0.092-0.693-0.138s-0.092-0.54 0.139-0.693c1.313-0.878 2.843-1.342 4.425-1.342 4.136 0 7.5 3.364 7.5 7.5v11c0 0.276-0.224 0.5-0.5 0.5z"></path>
</symbol>
<symbol id="icon-visualstudio_visual_developer_code_icon" viewBox="0 0 32 32">
<path d="M22.496 4.64l-10.224 9.912-6.152-4.736-1.32 0.72v10.928l1.32 0.72 6.152-4.736 10.224 9.912 4.704-1.904v-18.912zM6.792 18.544v-5.088l2.808 2.544zM21.712 20.28l-5.712-4.28 5.712-4.28v8.56z"></path>
</symbol>
</defs>
</svg>
