<!-- Generated by IcoMoon.io -->
<svg version="1.1" xmlns="http://www.w3.org/2000/svg" width="32" height="32" viewBox="0 0 32 32">
<title>whatsapp_logo_icon</title>
<path fill="#25d366" d="M16 0.813c-8.387 0-15.188 6.8-15.188 15.188 0 3.069 0.913 5.931 2.481 8.319l-1.956 6.625 6.881-1.906c2.275 1.363 4.938 2.144 7.781 2.144 8.387 0 15.188-6.8 15.188-15.188 0-8.381-6.8-15.181-15.188-15.181z"></path>
<path fill="#fff" d="M24.344 20.169c-0.019-0.2-0.137-0.375-0.319-0.456-1.225-0.563-2.456-1.125-3.681-1.688-0.137-0.063-0.306-0.031-0.406 0.087l-1.663 1.875c-0.131 0.15-0.337 0.2-0.519 0.125-0.863-0.356-2.025-0.956-3.2-1.969-1.406-1.206-2.231-2.5-2.694-3.344 0.231-0.156 0.863-0.625 1.144-1.494 0-0.006 0.006-0.012 0.006-0.012 0.175-0.537 0.137-1.119-0.056-1.65-0.331-0.881-0.994-2.588-1.25-2.85-0.044-0.044-0.094-0.088-0.094-0.088-0.188-0.169-0.431-0.262-0.688-0.275-0.088-0.006-0.181-0.006-0.281-0.006-0.287-0.006-0.544-0.006-0.731 0.019-0.531 0.075-0.919 0.431-1.162 0.731-0.294 0.356-0.644 0.887-0.875 1.588-0.019 0.063-0.037 0.119-0.056 0.181-0.256 0.887-0.206 1.838 0.1 2.713 0.287 0.819 0.706 1.794 1.338 2.825 1.069 1.756 2.231 2.844 3.019 3.563 0.887 0.819 1.988 1.825 3.731 2.663 1.613 0.775 3.075 1.063 4.056 1.181 0.4 0.038 1.137 0.044 1.981-0.275 0.387-0.15 0.712-0.331 0.975-0.525 0.694-0.494 1.181-1.238 1.306-2.075 0-0.006 0-0.012 0-0.019 0.044-0.319 0.038-0.594 0.019-0.825z"></path>
</svg>
